<svg width="800" height="208" viewBox="0 0 800 208" fill="none" xmlns="http://www.w3.org/2000/svg">
<rect width="800" height="208" fill="#F9F6EA"/>
<mask id="mask0_954_369" style="mask-type:alpha" maskUnits="userSpaceOnUse" x="0" y="0" width="800" height="208">
<rect width="800" height="208" fill="#D9D9D9"/>
</mask>
<g mask="url(#mask0_954_369)">
<path fill-rule="evenodd" clip-rule="evenodd" d="M878.426 85.3702C873.146 96.0455 866.095 107.549 859.215 117.534C852.693 127 855.222 139.864 864.865 146.267C874.508 152.67 887.612 150.187 894.134 140.72C901.802 129.592 909.964 116.355 916.349 103.448C922.336 91.3444 928.249 76.6557 928.531 63.6046C928.677 56.8164 927.364 47.3819 920.304 39.5854C912.845 31.3484 902.704 28.9755 894.031 29.0607C878.415 29.2142 858.541 37.271 834.716 50.5165C825.272 55.7668 816.046 60.9465 807.064 65.989C787.421 77.0176 768.947 87.3895 751.918 96.407C726.802 109.708 707.001 118.859 693.246 122.544C691.156 123.104 689.367 123.491 687.859 123.744C688.027 122.155 688.343 120.118 688.909 117.558C690.672 109.589 694.378 98.6473 700.732 84.0939C707.649 68.2502 712.329 54.6584 714.641 43.1702C716.856 32.1645 717.465 20.4199 713.099 10.0744C707.966 -2.08796 697.609 -8.66699 686.436 -10.6351C676.684 -12.3528 666.556 -10.6243 657.949 -8.27741C640.439 -3.50278 619.704 6.625 600.128 17.0427C590.121 22.3686 579.961 28.0234 570.208 33.4563L569.591 33.8002C559.989 39.1491 550.819 44.2575 542.251 48.8194C525.932 57.507 509.95 63.1661 496.377 66.0223C485.556 68.2995 477.504 68.5409 472.389 67.9449C474.771 64.0937 479.568 57.9496 488.946 49.4527C497.5 41.7016 498.034 28.6103 490.138 20.2124C482.243 11.8146 468.907 11.2904 460.352 19.0416C443.574 34.244 431.033 50.163 428.524 66.3969C427.11 75.5472 428.905 85.0066 435.014 92.9479C440.752 100.408 448.743 104.512 456.057 106.731C470.3 111.052 487.96 110.119 505.213 106.488C523.047 102.735 542.802 95.6052 562.348 85.1991C571.279 80.4446 580.756 75.1646 590.222 69.8917L591.015 69.4499C600.816 63.9897 610.628 58.5302 620.22 53.4254C639.844 42.9817 656.822 34.9818 669.232 31.598C671.058 31.1 672.65 30.7415 674.019 30.4959C673.885 31.7523 673.657 33.2908 673.283 35.1495C671.768 42.6758 668.308 53.3041 661.983 67.7905C655.095 83.5671 650.272 97.2057 647.712 108.774C645.264 119.838 644.279 131.584 647.964 142.029C652.351 154.461 662.256 162.091 674.176 164.574C684.329 166.689 695.058 164.957 704.345 162.469C723.29 157.394 746.928 146.072 771.933 132.831C789.434 123.563 808.662 112.768 828.558 101.598C837.434 96.6155 846.442 91.5579 855.49 86.5279C866.807 80.2365 875.668 76.0917 882.454 73.5551C882.914 73.383 883.36 73.2202 883.792 73.0661C882.537 76.4976 880.78 80.6123 878.426 85.3702ZM886.374 62.322C886.373 62.3233 886.374 62.3613 886.382 62.4317C886.38 62.3558 886.376 62.3206 886.374 62.322ZM467.347 66.7489C467.347 66.7489 467.36 66.7578 467.392 66.7743C467.364 66.7569 467.347 66.7489 467.347 66.7489Z" fill="#FFF181"/>
<path d="M157.335 133.089L158.555 80.2526C158.63 76.218 157.082 72.3118 154.245 69.3713C151.41 66.4313 147.51 64.6933 143.385 64.5305L0.285416 59.0502C-1.7877 58.9719 -3.85416 59.295 -5.79626 60.0012C-7.73829 60.7071 -9.5163 61.7825 -11.0287 63.1647C-12.5411 64.5468 -13.7593 66.2085 -14.6112 68.0544C-15.461 69.901 -15.9308 71.8943 -15.9901 73.9211L-17.8662 141.294C-17.9282 143.435 -17.5294 145.566 -16.6999 147.55C-15.8684 149.535 -14.6244 151.329 -13.0438 152.817C-11.4632 154.306 -9.58212 155.455 -7.52338 156.193C-5.46464 156.93 -3.27299 157.238 -1.08698 157.098L142.67 148.042C146.589 147.796 150.267 146.125 152.981 143.358C155.695 140.591 157.248 136.928 157.335 133.089Z" fill="#F942A9"/>
<path fill-rule="evenodd" clip-rule="evenodd" d="M210.168 169.812C210.181 171.879 209.404 173.872 207.985 175.404C206.564 176.937 204.594 177.906 202.453 178.1L97.894 187.627C96.6998 187.737 95.4938 187.602 94.3527 187.229C93.2109 186.856 92.1617 186.254 91.2735 185.464C90.3861 184.675 89.6806 183.716 89.1976 182.65C88.7162 181.586 88.4689 180.44 88.4688 179.289L88.4122 130.161C88.4126 129.071 88.6337 127.992 89.0618 126.986C89.4907 125.981 90.1204 125.067 90.916 124.298C91.7111 123.529 92.6574 122.918 93.7027 122.505C94.7484 122.091 95.8717 121.882 97.0086 121.893C97.009 121.893 97.0093 121.893 97.0097 121.893C97.0098 121.893 97.0095 121.893 97.0097 121.893L201.388 122.972C201.389 122.972 201.389 122.972 201.39 122.972C203.657 122.998 205.825 123.894 207.423 125.46C209.021 127.024 209.916 129.122 209.94 131.294C209.941 131.296 209.941 131.298 209.941 131.3L210.168 169.812ZM212.833 131.245L213.061 169.768C213.078 172.567 212.024 175.268 210.105 177.34C208.186 179.411 205.541 180.703 202.691 180.962L98.136 190.488C96.5462 190.635 94.9428 190.455 93.4271 189.96C91.9115 189.464 90.5166 188.665 89.3335 187.613C88.1503 186.56 87.206 185.279 86.5582 183.849C85.9118 182.421 85.5763 180.876 85.5762 179.315L85.5196 130.186C85.52 128.708 85.8202 127.246 86.4004 125.883C86.9821 124.521 87.8346 123.285 88.9074 122.248C89.9802 121.21 91.253 120.39 92.6531 119.836C94.0532 119.282 95.5521 119.004 97.0643 119.019L201.447 120.098C204.457 120.133 207.335 121.32 209.463 123.404C211.592 125.489 212.802 128.304 212.833 131.245Z" fill="#3EF43E"/>
<path d="M604.079 107.865L603.965 149.353C603.908 150.77 604.265 152.176 605.002 153.417C605.737 154.66 606.822 155.692 608.141 156.404C609.459 157.116 610.961 157.48 612.485 157.458C614.01 157.436 615.5 157.026 616.792 156.276L650.763 136.036L686.143 114.965C687.36 114.207 688.358 113.182 689.047 111.981C689.737 110.779 690.098 109.439 690.098 108.077C690.098 106.715 689.737 105.373 689.047 104.173C688.358 102.97 687.36 101.945 686.143 101.189L650.917 79.939L617.059 59.5226C615.77 58.7662 614.284 58.3514 612.762 58.3205C611.238 58.291 609.735 58.6467 608.413 59.3511C607.091 60.0555 606 61.0818 605.256 62.3191C604.513 63.5564 604.145 64.9582 604.193 66.3754L604.079 107.865Z" fill="#7270FF"/>
<path d="M284.428 -24.2984C273.951 -24.2544 263.724 -21.162 255.038 -15.4119C246.352 -9.66184 239.598 -1.51168 235.63 8.00595C231.662 17.5247 230.658 27.9847 232.746 38.0626C234.833 48.1416 239.918 57.3856 247.358 64.6266C254.798 71.8686 264.258 76.7815 274.541 78.7447C284.825 80.7079 295.471 79.6345 305.133 75.6577C314.795 71.6819 323.039 64.9829 328.822 56.4066C334.605 47.8314 337.668 37.7653 337.624 27.4802C337.561 13.6895 331.922 0.488008 321.947 -9.22176C311.971 -18.9315 298.476 -24.3542 284.428 -24.2984ZM300.844 27.7013C301.354 21.3094 310.961 21.3555 311.435 27.7013C311.234 33.9076 300.547 34.4894 300.844 27.7013ZM279.601 27.7829C280.099 21.3909 289.706 21.4489 290.169 27.7829C289.967 33.9892 279.304 34.6289 279.601 27.7829ZM258.334 27.8763C258.832 21.4843 268.452 21.5305 268.926 27.8763C268.725 34.0826 258.038 34.6289 258.334 27.8763Z" fill="#3EF43E"/>
<path fill-rule="evenodd" clip-rule="evenodd" d="M387.212 137.551C388.008 137.551 388.652 138.195 388.652 138.991L388.652 184.529C388.652 185.325 388.008 185.969 387.212 185.969C386.417 185.969 385.772 185.325 385.772 184.529L385.772 138.991C385.772 138.195 386.417 137.551 387.212 137.551Z" fill="#F942A9"/>
<path fill-rule="evenodd" clip-rule="evenodd" d="M373.654 137.551C374.449 137.551 375.094 138.195 375.094 138.991L375.094 184.529C375.094 185.325 374.449 185.969 373.654 185.969C372.858 185.969 372.214 185.325 372.214 184.529L372.214 138.991C372.214 138.195 372.858 137.551 373.654 137.551Z" fill="#F942A9"/>
<path fill-rule="evenodd" clip-rule="evenodd" d="M360.091 137.551C360.887 137.551 361.531 138.195 361.531 138.991L361.531 184.529C361.531 185.325 360.887 185.969 360.091 185.969C359.296 185.969 358.651 185.325 358.651 184.529L358.651 138.991C358.651 138.195 359.296 137.551 360.091 137.551Z" fill="#F942A9"/>
<path fill-rule="evenodd" clip-rule="evenodd" d="M346.533 137.551C347.328 137.551 347.973 138.195 347.973 138.991L347.973 184.529C347.973 185.325 347.328 185.969 346.533 185.969C345.737 185.969 345.093 185.325 345.093 184.529L345.093 138.991C345.093 138.195 345.737 137.551 346.533 137.551Z" fill="#F942A9"/>
</g>
</svg>
